# xmcd
#
# Track frame offsets:
#	150
#	10787
#	19653
#	28474
#	42432
#	54113
#	68685
#	83167
#	94835
#	104416
#	117625
#	131038
#	142854
#	172863
#	193388
#	208444
#	220439
#	232450
#	242664
#	252222
#	262758
#	275564
#	288900
#	301052
#	313912
#	330090
#	339229
#	349545
#	367646
#
# Disc length: 5093 seconds
# Revision: 0
# Processed by: cddbd v1.5.2PL0 Copyright (c) Steve Scherf et al.
# Submitted via: dBpowerAMP V12.0
#
DISCID=ac13e31d
DTITLE=Various Artist - Portrait Of An American Singer [Disc 3]
DYEAR=2015
DGENRE=Country
TTITLE0=Tennessee Ernie Ford - Catfish Boogie 
TTITLE1=Tennessee Ernie Ford and Betty Hutton - This Must Be The Place! 
TTITLE2=Tennessee Ernie Ford and Betty Hutton - The Honeymoon's Over 
TTITLE3=Tennessee Ernie Ford - There Is Beauty In Everything 
TTITLE4=Tennessee Ernie Ford - Somebody Bigger Than You And I 
TTITLE5=Tennessee Ernie Ford - Have You Seen Her
TTITLE6=Tennessee Ernie Ford - Give Me Your Word
TTITLE7=Tennessee Ernie Ford - River Of No Return 
TTITLE8=Tennessee Ernie Ford - Eins, Zwei, Drei 
TTITLE9=Tennessee Ernie Ford - Losing You 
TTITLE10=Tennessee Ernie Ford - The Ballad Of Davy Crockett 
TTITLE11=Tennessee Ernie Ford - Farewell 
TTITLE12=Tennessee Ernie Ford - The Death Hug - A Sensible Varmint 
TTITLE13=Tennessee Ernie Ford - Crockett's Opinion Of A Thunderstorm
TTITLE14=Tennessee Ernie Ford - I Am A Pilgrim 
TTITLE15=Tennessee Ernie Ford - His Hands 
TTITLE16=Tennessee Ernie Ford - Sixteen Tons
TTITLE17=Tennessee Ernie Ford - You Don't Have To Be A Baby To Cry 
TTITLE18=Tennessee Ernie Ford - Nine Pound Hammer 
TTITLE19=Tennessee Ernie Ford - Trouble In Mind
TTITLE20=Tennessee Ernie Ford - That's All 
TTITLE21=Tennessee Ernie Ford - John Henry
TTITLE22=Tennessee Ernie Ford - Chicken Road 
TTITLE23=Tennessee Ernie Ford - Dark As A Dungeon
TTITLE24=Tennessee Ernie Ford - I Gave My Love A Cherry
TTITLE25=Tennessee Ernie Ford - Gaily The Troubadour
TTITLE26=Tennessee Ernie Ford - The Rovin' Gambler
TTITLE27=Tennessee Ernie Ford - The Last Letter 
TTITLE28=Tennessee Ernie Ford - Who Will Shoe Your Pretty Little Feet
EXTD=
EXTT0=
EXTT1=
EXTT2=
EXTT3=
EXTT4=
EXTT5=
EXTT6=
EXTT7=
EXTT8=
EXTT9=
EXTT10=
EXTT11=
EXTT12=
EXTT13=
EXTT14=
EXTT15=
EXTT16=
EXTT17=
EXTT18=
EXTT19=
EXTT20=
EXTT21=
EXTT22=
EXTT23=
EXTT24=
EXTT25=
EXTT26=
EXTT27=
EXTT28=
PLAYORDER=
